<?xml version="1.0" encoding="UTF-8"?>
<svg xmlns="http://www.w3.org/2000/svg" xmlns:xlink="http://www.w3.org/1999/xlink" width="32px" height="32px" viewBox="0 0 32 32" version="1.1">
<g id="surface1">
<path style="fill:none;stroke-width:1.5;stroke-linecap:round;stroke-linejoin:round;stroke:rgb(0%,0%,0%);stroke-opacity:1;stroke-miterlimit:4;" d="M 15.999023 22.025391 L 15.999023 19.157227 C 16.037109 18.679687 15.972656 18.199219 15.811523 17.750977 C 15.647461 17.299805 15.392578 16.889648 15.058594 16.546875 C 18.199219 16.198242 21.500977 15.005859 21.500977 9.547852 C 21.500977 8.150391 20.961914 6.808594 20.000977 5.797852 C 20.455078 4.576172 20.422852 3.225586 19.910156 2.027344 C 19.910156 2.027344 18.729492 1.675781 15.999023 3.506836 C 13.708008 2.885742 11.291016 2.885742 9 3.506836 C 6.269531 1.675781 5.088867 2.027344 5.088867 2.027344 C 4.576172 3.225586 4.543945 4.576172 5.000977 5.797852 C 4.03125 6.814453 3.492187 8.170898 3.500977 9.577148 C 3.500977 14.99707 6.799805 16.186523 9.94043 16.576172 C 9.612305 16.916016 9.357422 17.323242 9.196289 17.765625 C 9.032227 18.210937 8.967773 18.685547 9 19.157227 L 9 22.025391 " transform="matrix(1.333333,0,0,1.333333,0,0)"/>
<path style="fill:none;stroke-width:1.5;stroke-linecap:round;stroke-linejoin:round;stroke:rgb(0%,0%,0%);stroke-opacity:1;stroke-miterlimit:4;" d="M 9 20.027344 C 6 21 3.500977 20.027344 2.000977 17.027344 " transform="matrix(1.333333,0,0,1.333333,0,0)"/>
</g>
</svg>
